<svg xmlns="http://www.w3.org/2000/svg" aria-hidden="true" overflow="hidden" style="position:absolute;width:0;height:0">
  <defs>
    <symbol id="antenna" viewBox="0 0 32 32">
      <path fill="var(--color1, #2e2f42)" d="m30.773 22.098-8.443-8.505.937-4.615c.242.094.499.144.758.146h.006c1.192.014 2.17-.941 2.184-2.133s-.941-2.17-2.133-2.184c-1.192-.014-2.17.941-2.184 2.133-.003.255.039.509.125.749l-4.96.605L8.972.161a.534.534 0 0 0-.377-.16.5319.5319 0 0 0-.373.155L6.709 1.66a.5335.5335 0 0 0 0 .754l.814.826C4.37 9.038 5.394 16.218 10.042 20.903c.043.041.092.074.146.098-.034.18-.051.364-.052.547v6.187h-6.4c-1.472.002-2.665 1.195-2.667 2.667v1.067c0 .295.239.533.533.533h24.533c.295 0 .533-.239.533-.533v-1.067c-.002-1.472-1.195-2.665-2.667-2.667h-6.4v-2.742c1.003.21 2.024.317 3.049.32a14.854 14.854 0 0 0 7.04-1.783l.818.823a.534.534 0 0 0 .377.16c.14-.001.274-.056.373-.155l1.513-1.504a.5335.5335 0 0 0 0-.754zM23.28 6.233c.418-.415 1.093-.414 1.509.004s.414 1.093-.004 1.508c-.2.199-.47.31-.752.31h-.003c-.589-.003-1.064-.483-1.061-1.072.002-.282.115-.552.314-.751h-.002zm-1.256 3.505-.598 2.946-1.175-1.182 1.774-1.763zm-.605-.902-1.92 1.909-1.485-1.493 3.405-.415zM24.004 28.8c.884 0 1.6.716 1.6 1.6v.533H2.137V30.4c0-.884.716-1.6 1.6-1.6h20.267zm-7.467-2.133v1.067h-5.333v-1.067h5.333zM11.204 25.6v-4.053c0-1.294 1.196-2.347 2.667-2.347s2.667 1.053 2.667 2.347V25.6h-5.333zm6.4-1.696v-2.357c0-1.882-1.675-3.413-3.733-3.413a3.8003 3.8003 0 0 0-3.281 1.786C6.532 15.646 5.619 9.275 8.311 4.033l18.602 18.708a13.8184 13.8184 0 0 1-9.309 1.163zm11.289-.684L7.836 2.039l.755-.752 7.935 7.98c.004 0 .006.007.01.01l13.115 13.191-.757.752z"/>
      <path fill="var(--color2, #4d5ae5)" d="M13.876 20.267h-.005c-.884-.001-1.601.714-1.602 1.598s.714 1.601 1.598 1.602h.005c.884.001 1.601-.714 1.602-1.598s-.714-1.601-1.598-1.602zm.373 1.978c-.1.1-.236.156-.378.155a.5343.5343 0 0 1-.531-.536.5325.5325 0 0 1 .53-.53c.295.002.532.242.531.536a.5325.5325 0 0 1-.157.375h.005z"/>
    </symbol>
    <symbol id="customer6" viewBox="0 0 61 32">
      <path  d="M31.102 15.798c-.162-.215-.239-.469-.22-.724v-1.05c0-.322.073-.567.219-.734s.397-.251.753-.25c.334 0 .572.071.712.214.153.182.228.404.21.628v.247h-.598v-.25c.002-.082-.004-.164-.017-.245a.24.24 0 0 0-.085-.145c-.061-.042-.139-.062-.217-.057a.368.368 0 0 0-.228.06c-.052.043-.087.099-.099.16-.017.086-.025.173-.024.26v1.275c-.009.123.017.246.077.358.03.038.071.068.119.087s.102.026.154.02c.077.005.153-.015.212-.058.049-.042.08-.096.089-.155.014-.085.02-.17.019-.255v-.259h.598v.236c.017.234-.056.466-.207.66-.137.156-.371.234-.716.234s-.604-.083-.752-.256zM33.591 15.808c-.151-.163-.227-.402-.227-.717v-1.105c0-.312.076-.548.227-.708s.404-.24.758-.239c.352 0 .603.08.754.239s.228.396.228.708v1.105c0 .312-.077.551-.23.716s-.404.247-.752.247-.605-.083-.758-.246zm1.037-.265a.617.617 0 0 0 .072-.327v-1.353a.5972.5972 0 0 0-.071-.321c-.03-.039-.073-.069-.122-.088s-.104-.025-.158-.019c-.054-.006-.108 0-.158.019s-.092.049-.123.088c-.054.1-.079.21-.072.32v1.359c-.008.112.017.225.072.327.035.034.078.062.126.081s.101.029.154.029.105-.01.154-.029a.3843.3843 0 0 0 .126-.081v-.006zM36.05 13.071h.644l.484 2.038.495-2.038h.627l.063 2.942H37.9l-.049-2.045-.478 2.045h-.371l-.495-2.052-.046 2.052h-.468l.058-2.942zM39.085 13.071h1.003c.578 0 .867.278.867.835 0 .533-.304.8-.912.799h-.342v1.308h-.619l.004-2.942zm.856 1.258c.061.007.123.002.182-.014s.113-.043.158-.079c.071-.099.103-.216.089-.332a.9597.9597 0 0 0-.029-.267c-.009-.029-.024-.057-.046-.081s-.048-.044-.078-.059a.631.631 0 0 0-.276-.047h-.24v.879h.24zM41.847 13.071h.665l.682 2.942h-.577l-.135-.678h-.593l-.139.678h-.585l.682-2.942zm.568 1.923-.231-1.235-.232 1.235h.463zM43.745 13.071h.433l.829 1.678v-1.678h.514v2.942h-.412l-.835-1.752v1.752h-.531l.001-2.942zM46.725 14.892l-.689-1.816h.581l.421 1.167.395-1.167h.568l-.681 1.816v1.122h-.594v-1.122zM32.057 17.299v.154h-.505v1.195h-.212v-1.195h-.508v-.154h1.224zM33.641 18.649h-.163a.0731.0731 0 0 1-.046-.013.0727.0727 0 0 1-.027-.031l-.146-.32h-.701l-.146.32a.09.09 0 0 1-.022.036.0731.0731 0 0 1-.046.013h-.163l.619-1.349h.215l.626 1.344zm-1.025-.501h.584l-.248-.549a1.0178 1.0178 0 0 1-.046-.127c-.009.026-.016.05-.023.072l-.022.057-.245.548zM34.708 18.516c.039.002.078.002.116 0a.6589.6589 0 0 0 .099-.016.692.692 0 0 0 .089-.025c.027-.01.054-.021.083-.033v-.303h-.248c-.006 0-.012 0-.018-.002s-.011-.005-.015-.008-.007-.007-.009-.011-.003-.009-.003-.014V18h.48v.517c-.039.024-.081.046-.124.064s-.09.034-.137.046a1.143 1.143 0 0 1-.155.028c-.06.006-.12.009-.181.009a.9357.9357 0 0 1-.312-.05.7585.7585 0 0 1-.248-.141.6604.6604 0 0 1-.16-.214.678.678 0 0 1-.057-.28.7063.7063 0 0 1 .056-.282c.036-.08.09-.153.16-.214s.155-.108.248-.14c.106-.034.219-.051.332-.05.058 0 .115.004.172.012a.8052.8052 0 0 1 .271.087.999.999 0 0 1 .108.07l-.059.083c-.005.008-.012.014-.02.018s-.018.007-.028.007a.0704.0704 0 0 1-.038-.011.9363.9363 0 0 1-.061-.032.5618.5618 0 0 0-.083-.036.735.735 0 0 0-.114-.03 1.0375 1.0375 0 0 0-.157-.012.7376.7376 0 0 0-.239.037.5186.5186 0 0 0-.182.107.485.485 0 0 0-.115.168.6343.6343 0 0 0 0 .45c.027.063.069.121.124.17.051.046.112.083.181.107.079.023.162.032.245.027zM36.681 18.495h.676v.154h-.883V17.3h.212l-.005 1.195zM38.061 18.649h-.212V17.3h.212v1.349zM38.848 17.306c.012.006.023.015.032.025l.905 1.017a.3844.3844 0 0 1 0-.048v-1.006h.184v1.355h-.107a.1017.1017 0 0 1-.046-.008.1058.1058 0 0 1-.033-.026l-.904-1.016v1.05h-.177V17.3h.11c.012 0 .024.002.035.006zM41.529 17.299v.148h-.751v.445h.608v.143h-.608v.46h.751v.148h-.968v-1.346h.968zM19.344 8.967l9.401 2.303v8.071l-9.401-2.302V8.967zm-.603-.688v9.152l10.605 2.599v-9.151l-10.605-2.6z"/>
      <path  d="m24.425 24.279-10.607-2.601v-9.151l10.607 2.6v9.152zM18.917 8.863l9.278 2.274-3.946 3.406-9.279-2.276 3.947-3.405zm-.176-.584-4.923 4.248 10.607 2.6 4.921-4.248-10.605-2.6zM25.021 23.764l4.325-3.733-4.325-1.061v4.793z"/>
    </symbol>
    <symbol id="customer5" viewBox="0 0 61 32">
      <path d="M21.379 21.954c.089.099.137.224.134.352.005.083-.012.167-.048.244s-.091.146-.16.201c-.173.118-.388.176-.605.162h-1.064v-2.23h1.042c.206-.012.41.04.577.148.067.051.121.115.156.187s.051.151.046.23c.006.123-.037.244-.121.341-.081.089-.193.15-.317.174.141.023.268.091.359.191zm-1.248-.337h.445c.101.007.202-.02.283-.074.033-.027.059-.061.076-.099s.023-.078.02-.119c.003-.04-.004-.081-.02-.119s-.042-.072-.074-.099a.465.465 0 0 0-.292-.075h-.438v.585zm.772.855c.036-.028.064-.063.082-.102s.026-.082.023-.124c.003-.043-.006-.086-.024-.126s-.047-.075-.083-.103a.4971.4971 0 0 0-.302-.081h-.467v.613h.473a.508.508 0 0 0 .299-.077zM23.509 22.912l-.58-.872h-.218v.872h-.499v-2.23h.944c.238-.015.473.053.657.19.132.121.212.28.224.45s-.042.337-.154.473c-.116.12-.276.2-.45.227l.617.891h-.542zm-.798-1.175h.408c.283 0 .425-.113.425-.338.003-.046-.005-.092-.023-.135s-.046-.082-.081-.115c-.09-.067-.205-.099-.321-.09h-.413l.005.679zM26.234 22.464h-.994l-.175.449h-.523l.912-2.205h.565l.909 2.205h-.523l-.172-.449zm-.133-.338-.363-.941-.363.941h.726zM29.645 22.913h-.495l-1.11-1.516v1.516h-.494v-2.23h.494l1.11 1.525v-1.525h.495v2.23zM32.469 22.379c-.102.168-.258.305-.448.393-.215.098-.454.146-.696.141h-.881v-2.23h.881c.241-.006.48.041.696.137.189.086.346.222.448.389.102.181.155.382.155.585s-.053.404-.155.585zm-.566-.054c.141-.148.219-.337.219-.532s-.078-.384-.219-.532c-.171-.134-.393-.202-.62-.19h-.344v1.443h.344c.226.013.449-.055.62-.19zM26.543 8.279s6.388 2.171 6.252 5.313v5.314s-6.383-2.172-6.25-5.314l-.002-5.313zM38.487 17.662c1.207-.747 2.602-1.21 4.059-1.346v-1.663c-1.679.582-3.102 1.638-4.059 3.01z"/>
      <path  d="M37.762 18.163c.987-1.79 2.699-3.171 4.783-3.86V9.51s-9.097 3.093-8.905 7.567v7.566s.405-.138 1.043-.398c0-.242 0-.486.029-.731.188-2.077 1.285-4.002 3.05-5.351z"/>
      <path d="M36.897 20.973c.048-.525.155-1.044.319-1.549-1.099 1.165-1.764 2.611-1.902 4.134a6.23 6.23 0 0 0-.024.436c.517-.223 1.118-.502 1.75-.83a7.0813 7.0813 0 0 1-.142-2.191zM37.259 21.001c-.06.663-.023 1.33.113 1.984 2.485-1.339 5.278-3.408 5.171-5.908v-.218c-1.776.179-3.437.878-4.729 1.989-.302.689-.489 1.414-.554 2.153z"/>
    </symbol>
    <symbol id="customer4" viewBox="0 0 59 32">
      <path  d="M13.759 12.296h-.002c-1.363 0-2.468.996-2.468 2.225v.002c0 1.229 1.105 2.225 2.468 2.225h.002c1.363 0 2.468-.996 2.468-2.225v-.002c0-1.229-1.105-2.225-2.468-2.225zM31.978 11.585c-.004-1.707-.758-3.343-2.096-4.551s-3.153-1.887-5.047-1.891c-1.894.003-3.709.683-5.049 1.89s-2.094 2.844-2.098 4.552v9.414s14.288-1.435 14.289-9.412v-.001zM6.286 24.088c.003 1.188.528 2.326 1.46 3.166s2.194 1.314 3.511 1.317c1.317-.003 2.579-.477 3.511-1.317s1.456-1.978 1.46-3.165v-6.55s-9.942.999-9.942 6.549zm4.971 1.174c-.258 0-.509-.069-.723-.198s-.381-.312-.479-.527-.124-.45-.074-.678c.05-.228.174-.437.356-.601s.414-.276.666-.321c.252-.045.514-.022.752.067s.441.239.584.432c.143.193.219.42.219.652.001.154-.033.308-.098.451s-.161.273-.282.382c-.121.109-.265.196-.423.256s-.328.09-.499.09v-.004zM20.348 23.151v2.438h-.502v-2.438h.502zm.971 1.042v.392h-1.108v-.392h1.108zm.117-1.042v.393h-1.225v-.393h1.225zm2.294 1.162v.116c0 .185-.025.352-.075.499s-.121.273-.213.377a.9185.9185 0 0 1-.328.236c-.126.055-.266.082-.42.082-.153 0-.293-.027-.42-.082a.9455.9455 0 0 1-.328-.236c-.093-.104-.165-.229-.216-.377-.05-.147-.075-.314-.075-.499v-.116c0-.186.025-.353.075-.499.05-.147.121-.273.213-.377a.9383.9383 0 0 1 .328-.238c.127-.055.267-.082.42-.082.154 0 .294.027.42.082.127.055.237.134.328.238.093.104.164.229.214.377.051.146.077.312.077.499zm-.508.116v-.119c0-.13-.012-.243-.035-.342s-.058-.181-.104-.248-.102-.117-.167-.151c-.066-.035-.141-.052-.226-.052s-.16.017-.226.052c-.065.034-.12.084-.166.151-.045.067-.079.15-.102.248s-.035.212-.035.342v.119c0 .128.012.242.035.341.023.098.058.181.104.249.046.067.102.118.167.152s.141.052.226.052c.085 0 .16-.017.226-.052s.121-.085.166-.152c.045-.068.079-.151.102-.249.023-.099.035-.213.035-.341zm2.138.522c0-.044-.007-.083-.02-.117-.012-.036-.036-.068-.07-.097-.035-.03-.083-.06-.146-.089s-.143-.059-.243-.09a3.168 3.168 0 0 1-.315-.121c-.098-.045-.185-.096-.261-.156a.688.688 0 0 1-.177-.209c-.042-.079-.064-.171-.064-.276 0-.102.022-.194.067-.276a.6292.6292 0 0 1 .188-.214c.08-.06.175-.107.285-.139.11-.032.232-.049.363-.049.18 0 .337.032.47.097s.238.154.311.266c.075.113.112.242.112.387h-.499c0-.071-.015-.134-.045-.188-.029-.055-.074-.098-.134-.129-.059-.031-.134-.047-.224-.047-.087 0-.16.013-.218.04-.058.026-.102.061-.131.105a.2618.2618 0 0 0-.044.147c0 .041.01.079.03.112.021.034.052.065.094.094s.092.056.152.082c.06.026.13.051.209.075.133.04.249.085.35.136.102.05.186.107.254.169s.119.133.154.213c.035.079.052.169.052.27 0 .106-.021.201-.062.285s-.101.155-.179.213c-.078.058-.171.102-.28.132s-.229.045-.363.045c-.12 0-.239-.016-.357-.047a1.0716 1.0716 0 0 1-.32-.146c-.095-.065-.171-.147-.228-.248s-.085-.219-.085-.357h.504c0 .076.012.14.035.192s.056.095.099.127c.044.032.095.056.154.07.06.015.126.022.198.022.087 0 .158-.012.214-.037.057-.025.099-.059.126-.102a.2681.2681 0 0 0 .042-.147zm1.934-1.8v2.438h-.501v-2.438h.501zm.75 0v.393h-1.989v-.393h1.989zm1.922 2.046v.392h-1.297v-.392h1.297zm-1.134-2.046v2.438h-.502v-2.438h.502zm.965.993v.382h-1.128v-.382h1.128zm.167-.993v.393h-1.296v-.393h1.296zm.295 0h.909c.186 0 .346.028.48.084.135.056.239.138.311.248s.109.244.109.403c0 .131-.022.243-.067.337a.631.631 0 0 1-.186.233c-.079.061-.172.11-.28.147l-.159.084h-.79l-.003-.392h.588c.088 0 .161-.016.219-.047s.102-.075.131-.131c.03-.056.045-.12.045-.194 0-.078-.015-.146-.044-.203s-.073-.1-.132-.131-.133-.045-.223-.045h-.407v2.044h-.502V23.15zm1.362 2.438-.556-1.086.531-.003.562 1.066v.023h-.537zm2.637-.869h-.621v-.392h.621c.096 0 .174-.016.234-.047.06-.032.104-.077.132-.134s.042-.121.042-.192c0-.073-.014-.14-.042-.203s-.072-.113-.132-.151-.138-.057-.234-.057h-.447v2.044h-.502V23.15h.949c.191 0 .354.035.49.104.137.068.242.162.315.283s.109.258.109.413c0 .157-.036.294-.109.408s-.177.204-.315.266c-.136.062-.3.094-.49.094zm2.896.477v.392h-1.297v-.392h1.297zm-1.133-2.046v2.438h-.502v-2.438h.502zm.964.993v.382h-1.128v-.382h1.128zm.168-.993v.393h-1.296v-.393h1.296zm1.418 0v2.438h-.501v-2.438h.501zm.75 0v.393h-1.989v-.393h1.989zm1.921 2.046v.392h-1.297v-.392h1.297zm-1.133-2.046v2.438h-.502v-2.438h.502zm.964.993v.382h-1.128v-.382h1.128zm.168-.993v.393h-1.296v-.393h1.296zm.294 0h.909c.186 0 .347.028.48.084.135.056.239.138.311.248s.109.244.109.403c0 .131-.022.243-.067.337a.631.631 0 0 1-.186.233c-.079.061-.172.11-.28.147l-.159.084h-.79l-.003-.392h.588c.088 0 .161-.016.219-.047s.102-.075.131-.131c.03-.056.045-.12.045-.194 0-.078-.014-.146-.044-.203s-.073-.1-.132-.131c-.059-.03-.133-.045-.223-.045h-.407v2.044h-.502V23.15zm1.363 2.438-.556-1.086.531-.003.563 1.066v.023h-.537zm2.103-.638c0-.044-.007-.083-.02-.117-.012-.036-.036-.068-.07-.097-.035-.03-.083-.06-.146-.089s-.143-.059-.243-.09a3.0759 3.0759 0 0 1-.315-.121c-.098-.045-.185-.096-.261-.156a.706.706 0 0 1-.178-.209c-.042-.079-.064-.171-.064-.276 0-.102.022-.194.067-.276a.6292.6292 0 0 1 .188-.214c.08-.06.175-.107.285-.139.111-.032.232-.049.363-.049.18 0 .337.032.47.097s.238.154.311.266c.075.113.112.242.112.387h-.499c0-.071-.015-.134-.045-.188-.029-.055-.074-.098-.134-.129-.059-.031-.134-.047-.224-.047-.087 0-.16.013-.218.04-.058.026-.102.061-.131.105a.2618.2618 0 0 0-.044.147c0 .041.01.079.03.112.021.034.052.065.094.094s.092.056.152.082c.06.026.13.051.209.075.133.04.249.085.35.136.102.05.186.107.254.169s.119.133.154.213c.035.079.052.169.052.27 0 .106-.021.201-.062.285s-.101.155-.179.213c-.078.058-.171.102-.28.132s-.229.045-.363.045c-.12 0-.239-.016-.357-.047a1.0716 1.0716 0 0 1-.32-.146c-.095-.065-.171-.147-.228-.248s-.085-.219-.085-.357h.504c0 .076.012.14.035.192s.056.095.099.127c.044.032.095.056.154.07.06.015.126.022.198.022.087 0 .158-.012.214-.037.057-.025.099-.059.126-.102a.2681.2681 0 0 0 .042-.147z"/>
    </symbol>
    <symbol id="customer3" viewBox="0 0 59 32">
      <path d="M21.034 28.128c.009 0 .018.002.027.005s.016.008.022.014l.126.119c-.098.096-.219.173-.355.225-.159.057-.331.085-.503.081-.162.003-.323-.023-.473-.076a1.0441 1.0441 0 0 1-.357-.213.9354.9354 0 0 1-.23-.329 1.0804 1.0804 0 0 1-.08-.422c-.002-.144.027-.288.087-.423a.9908.9908 0 0 1 .244-.329c.108-.093.237-.166.379-.214.155-.051.321-.077.487-.076.155-.003.309.02.453.069.125.046.24.111.339.19l-.106.127a.0868.0868 0 0 1-.027.023.07.07 0 0 1-.043.009.1072.1072 0 0 1-.046-.014l-.057-.034-.079-.043a.8992.8992 0 0 0-.106-.042 1.1597 1.1597 0 0 0-.144-.034 1.181 1.181 0 0 0-.188-.014c-.12-.001-.239.018-.35.057a.8024.8024 0 0 0-.274.159.7294.7294 0 0 0-.178.253.8566.8566 0 0 0-.065.334c-.002.116.02.23.065.34.038.093.098.179.175.252.072.068.162.122.262.156.103.036.213.055.325.054.064.001.129-.003.192-.011a.784.784 0 0 0 .292-.09.9746.9746 0 0 0 .125-.084.1046.1046 0 0 1 .06-.022zM24.678 27.532c.002.143-.027.285-.085.419-.051.122-.132.233-.238.326s-.232.166-.373.214c-.309.101-.65.101-.959 0-.14-.049-.266-.122-.371-.214-.105-.095-.187-.206-.24-.329a1.0743 1.0743 0 0 1 0-.84.982.982 0 0 1 .24-.33c.106-.09.232-.16.371-.206.308-.102.651-.102.959 0 .14.049.267.122.372.214.104.094.185.204.238.325.058.135.087.278.085.422zm-.331 0a.892.892 0 0 0-.06-.337.6874.6874 0 0 0-.169-.252.7473.7473 0 0 0-.267-.159 1.122 1.122 0 0 0-.697 0 .7473.7473 0 0 0-.267.159.678.678 0 0 0-.17.252c-.08.219-.08.454 0 .674.036.093.094.179.17.252.074.069.165.123.267.158.225.072.472.072.697 0a.7539.7539 0 0 0 .267-.158.7.7 0 0 0 .169-.252.8729.8729 0 0 0 .06-.337zM27.164 27.885l.033.076c.013-.027.024-.051.036-.076s.026-.05.041-.074l.806-1.252c.016-.022.03-.035.046-.039a.2091.2091 0 0 1 .066-.007h.238v2.036h-.282v-1.56a.409.409 0 0 1 0-.07l-.811 1.269c-.01.019-.027.035-.047.046s-.045.017-.069.017h-.046c-.025 0-.049-.006-.069-.017s-.037-.027-.047-.047l-.834-1.277V28.545h-.273v-2.032h.238c.022-.001.045.001.066.007.02.008.035.022.044.039l.823 1.253c.016.023.03.047.041.073zM30.197 27.784v.763h-.316v-2.034h.704c.133-.002.265.013.393.044.102.025.197.068.278.127.07.055.124.123.158.199.037.083.055.171.054.26a.5772.5772 0 0 1-.058.26.5594.5594 0 0 1-.17.203.8223.8223 0 0 1-.279.135 1.347 1.347 0 0 1-.38.047l-.382-.005zm0-.218h.382c.083.001.165-.01.244-.031a.554.554 0 0 0 .177-.088.3569.3569 0 0 0 .107-.135.3808.3808 0 0 0 .038-.171c.004-.057-.007-.113-.032-.166s-.062-.1-.11-.139c-.12-.08-.272-.119-.424-.109h-.382v.838zM34.437 28.549h-.249a.116.116 0 0 1-.069-.019.1306.1306 0 0 1-.041-.047l-.215-.492h-1.077l-.222.492a.1148.1148 0 0 1-.11.066h-.249l.946-2.036h.328l.959 2.036zm-1.562-.756h.89l-.375-.829a1.3304 1.3304 0 0 1-.071-.191l-.036.106a.95.95 0 0 1-.035.086l-.372.828zM35.8 26.522c.019.009.035.021.047.036l1.38 1.535v-1.58h.282v2.036h-.158a.1598.1598 0 0 1-.065-.012.1614.1614 0 0 1-.05-.038l-1.379-1.534a.409.409 0 0 1 0 .07v1.514h-.282v-2.036h.167c.02 0 .039.003.057.009zM39.834 27.739v.809h-.316v-.809l-.872-1.226h.282a.116.116 0 0 1 .068.018.187.187 0 0 1 .043.046l.546.791c.022.034.041.065.057.094s.028.058.039.086l.041-.088a.6236.6236 0 0 1 .054-.093l.538-.797c.011-.016.025-.03.041-.043a.1071.1071 0 0 1 .068-.02h.285l-.874 1.232zM27.008 23.095c.137.015.276.027.416.038 2.128-.813 3.929-2.145 5.176-3.828s1.887-3.643 1.838-5.634l-2.346-2.004c.477 2.12.254 4.313-.644 6.331s-2.436 3.783-4.441 5.098z"/>
      <path d="m26.17 23.002.063.011c2.143-1.31 3.776-3.138 4.69-5.25s1.064-4.408.433-6.594l-3.341-2.854c1.351 2.346 1.895 4.972 1.568 7.572s-1.511 5.067-3.414 7.115zM37.5 16.024c-.568 2.188-1.946 4.162-3.931 5.628-.58.43-1.205.814-1.868 1.145 1.616-.406 3.102-1.123 4.342-2.097s2.202-2.178 2.812-3.52L37.5 16.024z"/>
      <path d="m36.968 15.702-1.929-1.648c-.037 1.879-.662 3.716-1.811 5.318s-2.779 2.914-4.721 3.796h.009c.433 0 .865-.022 1.295-.066 1.815-.633 3.418-1.64 4.667-2.931s2.104-2.826 2.489-4.469zM26.449 7.112l-2.301-1.969c-2.057.679-3.827 1.873-5.077 3.426s-1.922 3.392-1.928 5.276c.008 2.082.828 4.103 2.331 5.742s3.603 2.803 5.967 3.308c2.111-2.197 3.346-4.912 3.528-7.75s-.701-5.652-2.52-8.032zM42.286 15.399c-.008-2.47-1.161-4.838-3.205-6.585s-4.815-2.731-7.707-2.739c-1.336-.001-2.661.21-3.907.621l14.09 12.039c.482-1.064.73-2.196.729-3.337z"/>
    </symbol>
    <symbol id="customer2" viewBox="0 0 59 32">
      <path d="M28.636 3.391h-.078c-.12-.007-.24-.01-.36-.013h-.26c-.227 0-.458.006-.688.017a.451.451 0 0 0-.052 0c-2.082.118-4.123.638-6.009 1.533l-.247.119v12.652l.578-.196c.507-.174 1.048-.331 1.607-.477 1.512-.388 3.065-.595 4.626-.615v1.662c-.207.002-.408.007-.609.017h-.048c-1.201.066-2.393.249-3.559.546-1.477.37-2.901.925-4.24 1.652V4.061c1.39-.811 2.888-1.42 4.448-1.809 1.37-.354 2.778-.535 4.192-.541h.244c.292.007.577.02.844.041.705.049 1.404.161 2.089.333v1.636c-.666-.155-1.342-.257-2.024-.305-.014-.001-.028-.002-.041-.004-.141-.012-.282-.024-.414-.024zm2.88 1.673c.363.028.739.041 1.119.041 1.487-.005 2.967-.195 4.407-.565 1.476-.371 2.9-.927 4.238-1.654v15.938c-1.391.81-2.889 1.419-4.449 1.809-1.37.352-2.778.533-4.192.539-1.072.009-2.14-.117-3.18-.375V4.756c.246.057.499.109.756.153.422.071.867.123 1.301.155zm8.111.123-.578.195c-.532.179-1.068.339-1.608.481-1.57.403-3.183.61-4.804.616-.377 0-.724-.01-1.06-.032l-.461-.03v13.015l.396.035c.367.032.746.048 1.128.048a15.335 15.335 0 0 0 3.783-.49c1.018-.255 2.008-.611 2.956-1.062l.247-.119V5.188zM20.421 25.836c-.083-.086-.183-.154-.294-.199s-.23-.066-.349-.061a.953.953 0 0 0-.372.07.8595.8595 0 0 0-.289.19.828.828 0 0 0-.186.291.9573.9573 0 0 0-.067.359v2.168c-.005.153.024.305.085.445.051.111.125.21.217.291.087.073.188.126.298.154.105.03.214.045.324.045.121.001.24-.025.35-.076a.9058.9058 0 0 0 .289-.201c.08-.084.145-.183.189-.291.046-.109.07-.227.069-.346v-.243h-.567v.193c.002.066-.01.132-.033.193a.3501.3501 0 0 1-.082.122.3305.3305 0 0 1-.119.062.367.367 0 0 1-.119.02c-.051.006-.102-.002-.149-.022s-.087-.053-.117-.094a.5117.5117 0 0 1-.075-.291v-2.021a.686.686 0 0 1 .069-.324c.029-.046.071-.082.12-.105s.104-.032.157-.025c.049-.002.097.008.141.03s.082.053.112.092c.063.083.097.186.094.291v.187h.561v-.221a1.022 1.022 0 0 0-.069-.379.8931.8931 0 0 0-.189-.305zM23.788 25.811a1.005 1.005 0 0 0-.645-.238.976.976 0 0 0-.338.061c-.11.039-.212.1-.299.177a.8858.8858 0 0 0-.22.304 1.009 1.009 0 0 0-.082.42v2.079c-.004.146.024.292.082.426.051.112.126.211.22.291.087.08.188.143.299.183.108.04.223.061.338.061s.23-.021.338-.061a.934.934 0 0 0 .306-.183c.09-.081.163-.18.214-.291.058-.134.086-.279.082-.426v-2.079a1.009 1.009 0 0 0-.082-.42.9268.9268 0 0 0-.214-.304zm-.265 2.803c.005.055-.003.111-.022.163s-.05.099-.09.138c-.075.063-.169.097-.267.097s-.192-.034-.267-.097c-.04-.038-.071-.085-.09-.138s-.027-.108-.022-.163v-2.079c-.005-.055.003-.111.022-.163s.05-.099.09-.138c.075-.063.169-.097.267-.097s.192.034.267.097c.04.038.071.085.09.138s.027.108.022.163v2.079zM28.21 29.543v-3.936h-.545l-.716 2.084h-.01l-.721-2.084h-.539v3.936h.562v-2.395h.01l.551 1.693h.28l.555-1.693h.01v2.395h.562zM31.405 25.882a.7853.7853 0 0 0-.318-.215 1.2542 1.2542 0 0 0-.408-.061h-.835v3.936h.561v-1.537h.289c.175.008.349-.029.506-.108a.8165.8165 0 0 0 .308-.301.9396.9396 0 0 0 .129-.343c.022-.148.032-.298.03-.448.006-.189-.013-.378-.055-.562a.8275.8275 0 0 0-.207-.362zm-.289 1.2a.4899.4899 0 0 1-.052.205.3127.3127 0 0 1-.145.138.5742.5742 0 0 1-.265.049h-.256v-1.338h.289c.087-.004.174.013.253.049a.32.32 0 0 1 .132.145c.031.069.047.144.049.219v.262c0 .092.006.186 0 .27h-.006zM34.062 25.606h-.46l-.867 3.936h.561l.165-.846h.765l.165.846h.561l-.889-3.936zm-.518 2.555.276-1.427h.01l.275 1.427h-.561zM37.686 27.978h-.01l-.847-2.371h-.539v3.936h.561v-2.367h.012l.857 2.367h.528v-3.936h-.561v2.371zM41.113 25.606l-.451 1.565h-.012l-.451-1.565h-.594l.77 2.273v1.664h.561v-1.664l.77-2.273h-.594zM18.857 30.654h.27v.759h.184v-.759h.269v-.155h-.723v.155zM21.13 30.498l-.354.914h.195l.075-.208h.364l.078.208h.2l-.363-.914h-.195zm-.029.553.124-.339.124.339H21.1zM23.376 31.076h.211v.118a.3566.3566 0 0 1-.217.077.2297.2297 0 0 1-.193-.087.3894.3894 0 0 1-.068-.238c0-.203.088-.305.263-.305a.194.194 0 0 1 .207.145l.181-.035c-.039-.179-.168-.269-.387-.269a.458.458 0 0 0-.319.118c-.046.045-.082.1-.104.161s-.032.126-.027.19c-.005.125.036.248.117.343a.4459.4459 0 0 0 .347.134c.143.004.282-.048.387-.145v-.36h-.396v.154zM25.67 30.498h-.185v.914h.64v-.155h-.455v-.759zM27.61 30.498h-.185v.914h.185v-.914zM29.507 31.109l-.374-.61h-.179v.914h.172v-.597l.367.597h.184v-.914h-.169v.61zM31.221 31.01h.455v-.155h-.455v-.201h.49v-.155h-.675v.914h.694v-.155h-.509v-.247zM35.378 30.859h-.36v-.36h-.184v.914h.184v-.4h.36v.4h.184v-.914h-.184v.36zM37.103 31.01h.457v-.155h-.457v-.201h.492v-.155h-.675v.914h.692v-.155h-.509v-.247zM39.442 31.01c.159-.025.24-.109.24-.254.005-.039-.001-.078-.017-.114s-.041-.067-.073-.089a.5157.5157 0 0 0-.267-.054h-.387v.914h.184v-.382h.036a.262.262 0 0 1 .114.02c.027.017.049.04.065.067l.2.291h.22l-.111-.179a.6425.6425 0 0 0-.202-.219zm-.185-.126h-.136v-.23h.145c.063-.005.126.002.187.022a.1168.1168 0 0 1 .04.095c-.001.018-.006.035-.014.051s-.02.029-.035.04a.5365.5365 0 0 1-.187.022zM41.206 31.01h.455v-.155h-.455v-.201h.492v-.155h-.676v.914h.694v-.155h-.509v-.247z"/>
    </symbol>
    <symbol id="customer1" viewBox="0 0 59 32">
      <path d="m21.714 4 4.004 3.815-7.433-.004v18.51h19.429v-7.077l4 3.811V4.001h-20zm15.824 14.796L26.184 7.979h11.354v10.817zm-3.525 4.817H21.36V11.164h.894V22.77h11.759v.843zm-10.13 6.136-.472-.97h-.389l.684 1.284v.748h.353v-.748l.684-1.284h-.388l-.472.97zm1.739-.969h.084l.767 2.031h-.368l-.164-.476h-.786l-.164.476h-.367l.765-2.031h.234zm-.373 1.278h.595l-.298-.862-.297.862zm2.455-.337c-.015-.02-.03-.038-.044-.057-.052-.069-.093-.135-.121-.2s-.043-.132-.043-.201c0-.106.022-.197.066-.273s.106-.135.186-.176c.08-.042.173-.063.28-.063.103 0 .192.021.266.063.075.041.133.095.173.163s.061.142.061.223c0 .064-.012.123-.035.176s-.055.101-.096.145a.9635.9635 0 0 1-.142.124l-.141.103.402.475a.8805.8805 0 0 0 .036-.082c.034-.089.052-.188.052-.297h.29c0 .099-.01.192-.029.28s-.049.17-.091.245a.7238.7238 0 0 1-.058.09l.298.351h-.389l-.118-.139a.7956.7956 0 0 1-.208.114.9383.9383 0 0 1-.315.053c-.135 0-.252-.025-.35-.074s-.175-.117-.229-.204c-.053-.087-.08-.186-.08-.297 0-.083.017-.155.052-.218s.081-.122.141-.176c.055-.05.118-.1.188-.15zm.167.204-.042.031c-.049.04-.086.079-.11.116s-.039.07-.046.1a.3242.3242 0 0 0-.011.081c0 .059.013.113.038.162s.064.087.113.116c.05.028.111.042.183.042.077 0 .152-.017.225-.052a.6099.6099 0 0 0 .103-.064l-.452-.532zm.08-.371.125-.084c.059-.039.1-.077.126-.114s.038-.086.038-.142c0-.048-.019-.093-.056-.134s-.09-.061-.158-.061c-.047 0-.087.011-.12.034s-.057.05-.074.087a.2842.2842 0 0 0-.024.119c0 .042.011.085.032.13s.051.09.088.138c.008.01.015.02.023.029zm3.554.596h-.349c-.01.088-.032.163-.064.225s-.079.106-.141.138c-.061.032-.142.047-.241.047-.082 0-.152-.016-.211-.049s-.107-.079-.145-.138c-.037-.059-.065-.131-.084-.213s-.026-.177-.026-.279v-.172c0-.108.01-.204.029-.287s.051-.156.091-.213c.04-.058.09-.101.149-.131s.129-.045.209-.045c.098 0 .177.017.237.05s.106.08.137.142c.032.062.052.137.061.225h.349c-.014-.136-.052-.256-.114-.361s-.148-.187-.259-.247c-.112-.06-.248-.089-.41-.089-.127 0-.242.022-.345.067s-.188.109-.261.194c-.073.084-.128.185-.167.303s-.057.25-.057.396v.169c0 .146.019.278.056.396s.093.219.165.303c.072.083.158.147.258.192s.213.067.339.067c.164 0 .303-.03.417-.089s.203-.141.266-.244c.063-.104.1-.223.112-.356zm1.938-.299v-.112c0-.153-.02-.291-.061-.412s-.097-.226-.172-.311c-.074-.087-.163-.152-.266-.197s-.218-.068-.343-.068c-.125 0-.239.023-.342.068s-.191.11-.266.197c-.074.086-.132.189-.173.311s-.061.258-.061.412v.112c0 .154.02.291.061.413s.1.226.176.311c.075.086.164.151.266.197s.217.067.342.067c.126 0 .24-.022.343-.067s.192-.111.265-.197c.074-.086.132-.189.172-.311s.06-.259.06-.413zm-.351-.114v.114c0 .113-.011.214-.033.301s-.053.161-.095.222c-.042.059-.093.105-.153.135s-.13.045-.208.045c-.077 0-.146-.015-.206-.045s-.113-.076-.156-.135c-.043-.06-.075-.134-.098-.222s-.033-.188-.033-.301v-.114c0-.113.011-.213.033-.3s.054-.16.096-.219c.043-.059.094-.104.155-.134s.129-.046.206-.046.147.015.208.046c.061.03.113.074.155.134s.075.132.096.219c.022.087.033.186.033.3z"/>
    </symbol>
    <symbol id="linkedin" viewBox="0 0 32 32">
      <path d="M31.992 32v-.001H32V20.263c0-5.741-1.236-10.164-7.948-10.164-3.227 0-5.392 1.771-6.276 3.449h-.093v-2.913h-6.364v21.364h6.627V21.42c0-2.785.528-5.479 3.977-5.479 3.399 0 3.449 3.179 3.449 5.657v10.401h6.62zM.528 10.636h6.635V32H.528V10.636zM3.843 0C1.722 0 0 1.721 0 3.843s1.721 3.879 3.843 3.879c2.121 0 3.843-1.757 3.843-3.879C7.685 1.722 5.963 0 3.843 0z"/>
    </symbol>
    <symbol id="facebook" viewBox="0 0 32 32">
      <path  d="M21.329 5.313h2.921V.225C23.746.156 22.013 0 19.994 0c-4.212 0-7.097 2.649-7.097 7.519V12H8.249v5.688h4.648V32h5.699V17.689h4.46l.708-5.688h-5.169V8.082c.001-1.644.444-2.769 2.735-2.769z"/>
    </symbol>
    <symbol id="twitter" viewBox="0 0 32 32">
      <path d="M32 6.078c-1.19.522-2.458.868-3.78 1.036 1.36-.812 2.398-2.088 2.886-3.626-1.268.756-2.668 1.29-4.16 1.588C25.742 3.794 24.026 3 22.154 3c-3.632 0-6.556 2.948-6.556 6.562 0 .52.044 1.02.152 1.496-5.454-.266-10.28-2.88-13.522-6.862-.566.982-.898 2.106-.898 3.316 0 2.272 1.17 4.286 2.914 5.452-1.054-.02-2.088-.326-2.964-.808v.072c0 3.188 2.274 5.836 5.256 6.446-.534.146-1.116.216-1.72.216-.42 0-.844-.024-1.242-.112.85 2.598 3.262 4.508 6.13 4.57-2.232 1.746-5.066 2.798-8.134 2.798-.538 0-1.054-.024-1.57-.09C2.906 27.93 6.35 29 10.064 29c12.072 0 18.672-10 18.672-18.668 0-.29-.01-.57-.024-.848C30.014 8.56 31.108 7.406 32 6.078z"/>
    </symbol>
    <symbol id="instagram" viewBox="0 0 32 32">
      <path d="M31.969 9.408c-.075-1.7-.35-2.869-.744-3.882-.406-1.075-1.031-2.038-1.85-2.838A7.8671 7.8671 0 0 0 26.543.844C25.524.45 24.361.175 22.661.1 20.948.019 20.404 0 16.06 0s-4.888.019-6.595.094c-1.7.075-2.869.35-3.882.744-1.075.406-2.038 1.031-2.838 1.85-.813.8-1.444 1.769-1.844 2.832C.507 6.539.232 7.702.157 9.402c-.081 1.713-.1 2.257-.1 6.601s.019 4.888.094 6.595c.075 1.7.35 2.869.744 3.882.406 1.075 1.038 2.038 1.85 2.838.8.813 1.769 1.444 2.832 1.844 1.019.394 2.182.669 3.882.744 1.706.075 2.25.094 6.595.094s4.888-.018 6.595-.094c1.7-.075 2.869-.35 3.882-.744a8.1814 8.1814 0 0 0 4.682-4.682c.394-1.019.669-2.182.744-3.882.075-1.707.094-2.251.094-6.595s-.006-4.888-.081-6.595zm-2.882 13.065c-.069 1.563-.331 2.407-.55 2.969-.538 1.394-1.644 2.501-3.038 3.038-.563.219-1.413.481-2.969.55-1.688.075-2.194.094-6.464.094s-4.782-.018-6.464-.094c-1.563-.069-2.407-.331-2.969-.55-.694-.256-1.325-.663-1.838-1.194-.531-.519-.938-1.144-1.194-1.838-.219-.563-.481-1.413-.55-2.969-.075-1.688-.094-2.194-.094-6.464s.019-4.782.094-6.464c.069-1.563.331-2.407.55-2.969.256-.694.663-1.325 1.2-1.838.519-.531 1.144-.938 1.838-1.194.563-.219 1.413-.481 2.969-.55 1.688-.075 2.194-.094 6.464-.094 4.276 0 4.782.019 6.464.094 1.563.069 2.407.331 2.969.55.694.256 1.325.662 1.838 1.194.531.519.938 1.144 1.194 1.838.219.563.481 1.413.55 2.969.075 1.688.094 2.194.094 6.464s-.019 4.77-.094 6.457z"/>
      <path d="M16.059 7.782c-4.538 0-8.22 3.682-8.22 8.22s3.682 8.22 8.22 8.22 8.22-3.682 8.22-8.22-3.682-8.22-8.22-8.22zm0 13.553c-2.944 0-5.332-2.388-5.332-5.332s2.388-5.332 5.332-5.332 5.332 2.388 5.332 5.332-2.388 5.332-5.332 5.332zM26.524 7.457c0 1.06-.859 1.919-1.919 1.919s-1.919-.859-1.919-1.919.859-1.919 1.919-1.919 1.919.859 1.919 1.919z"/>
    </symbol>
    <symbol id="astronaut" viewBox="0 0 32 32">
      <path fill="var(--color2, #4d5ae5)" d="M31.974 4.524a.5343.5343 0 0 0-.43-.363l-1.91-.278-.855-1.731c-.179-.365-.777-.365-.956 0l-.855 1.731-1.91.278a.5354.5354 0 0 0-.431.363.5342.5342 0 0 0 .135.547l1.383 1.348-.326 1.903c-.034.2.048.402.212.522.166.121.382.135.562.04l1.709-.899 1.709.899c.078.041.164.061.249.061.11 0 .221-.034.314-.102a.5347.5347 0 0 0 .212-.522l-.326-1.903 1.383-1.348a.5363.5363 0 0 0 .135-.547zm-2.463 1.327a.5335.5335 0 0 0-.153.472l.191 1.114-1-.526c-.078-.041-.163-.061-.249-.061s-.17.02-.249.061l-1.001.526.191-1.114a.5344.5344 0 0 0-.153-.472l-.81-.789 1.119-.163a.5324.5324 0 0 0 .402-.292l.5-1.013.5 1.013c.078.157.228.267.402.292l1.119.163-.809.789zM26.133 20.522h-1.067v1.067h1.067v-1.067zM26.133 22.656h-1.067v1.067h1.067v-1.067zM27.2 21.589h-1.067v1.067H27.2v-1.067zM25.067 21.589H24v1.067h1.067v-1.067zM22.4 26.389h-1.067v1.067H22.4v-1.067zM22.4 28.522h-1.067v1.067H22.4v-1.067zM23.467 27.456H22.4v1.067h1.067v-1.067zM21.333 27.456h-1.067v1.067h1.067v-1.067zM16 24.256h-1.067v1.067H16v-1.067zM16 26.389h-1.067v1.067H16v-1.067zM17.067 25.322H16v1.067h1.067v-1.067zM14.933 25.322h-1.067v1.067h1.067v-1.067zM5.867 6.122H4.8v1.067h1.067V6.122zM5.867 8.255H4.8v1.067h1.067V8.255z"/>
      <path fill="var(--color2, #4d5ae5)" d="M6.933 7.189H5.866v1.067h1.067V7.189zM4.8 7.189H3.733v1.067H4.8V7.189z"/>
      <path fill="var(--color1, #2e2f42)" d="M24.715 14.159c-.287-.388-.709-.637-1.188-.705-.481-.068-.956.058-1.34.352l-1.252.96-1.898 1.417-1.358-.541c2.421-1.086 4.114-3.508 4.114-6.32 0-3.823-3.123-6.933-6.961-6.933s-6.961 3.11-6.961 6.933c0 1.386.414 2.674 1.12 3.758l-2.764-.024h-.005c-.009 0-.015.004-.023.005a.5147.5147 0 0 0-.155.031c-.013.005-.026.008-.038.013-.006.003-.013.003-.019.006l-3.233 1.596c-.001 0-.001 0-.001.001l-1.893.911a.3967.3967 0 0 0-.063.035c-.755.502-1.012 1.489-.598 2.295.22.429.595.745 1.056.889.178.055.359.083.539.083.29 0 .577-.071.839-.211l1.388-.738 2.264-1.169 1.357-.008L2.2 22.211c-.001.001-.001.001-.002.001L.859 23.545c-.316.315-.49.732-.49 1.178s.174.863.49 1.179c.325.323.752.485 1.179.485s.854-.162 1.18-.485l1.314-1.309 1.741-1.3.901.897-1.762 1.754c0 .001-.001.001-.002.001l-1.339 1.333c-.316.315-.49.732-.49 1.178s.174.863.49 1.179c.325.323.753.485 1.18.485s.855-.162 1.18-.485l3.482-3.467c.001-.001.001-.001.001-.002l1.01-1-.004-.004c.006-.006.015-.009.022-.015l5.166-5.658 3.471.494c.025.004.05.005.075.005.065 0 .127-.015.187-.038.018-.006.033-.015.05-.023.019-.01.039-.015.058-.027l3.213-2.133c.012-.008.018-.021.029-.029.013-.01.029-.014.041-.026l1.271-1.191c.662-.62.753-1.635.212-2.362zM2.13 17.77a.714.714 0 0 1-.558.052.7167.7167 0 0 1-.427-.358.714.714 0 0 1 .214-.902l1.314-.632.449 1.313-.992.527zm3.498-1.828-1.548.8-.439-1.283 2.027-1.001-.04 1.484zm15.099-6.62c0 .918-.219 1.785-.599 2.559l-4.181-1.899c-.044-.573-.341-1.075-.788-1.388l1.464-4.86c2.378.756 4.105 2.974 4.105 5.588zm-11.789 0c0-3.235 2.644-5.867 5.894-5.867.253 0 .5.021.745.052l-1.432 4.754c-.019-.001-.037-.006-.057-.006-1.033 0-1.873.837-1.873 1.867s.84 1.867 1.873 1.867c.694 0 1.294-.383 1.618-.945l3.862 1.755c-1.075 1.446-2.795 2.39-4.737 2.39-3.25 0-5.894-2.632-5.894-5.867zm5.956.8c0 .441-.362.8-.806.8s-.806-.359-.806-.8c0-.441.362-.8.806-.8s.806.359.806.8zM2.465 25.146c-.236.234-.619.234-.854.001-.114-.114-.176-.263-.176-.423s.062-.309.176-.421l.962-.958.851.848-.959.955zm3.214 3.734c-.236.234-.619.235-.855.001-.114-.114-.176-.263-.176-.423s.062-.309.176-.421l.963-.959.852.848-.96.955zm3.481-3.469c-.001 0-.001 0-.002.001l-1.765 1.76-.852-.848 1.763-1.755s.001-.001.002-.001c.04-.04.065-.088.09-.135.007-.014.02-.026.026-.04.017-.041.019-.085.026-.129.003-.025.014-.047.014-.073 0-.036-.013-.07-.02-.106-.006-.032-.006-.065-.019-.095-.02-.05-.055-.094-.091-.138-.01-.012-.014-.027-.025-.038h-.001c-.001 0-.001-.002-.001-.002l-1.607-1.6c-.017-.017-.039-.024-.058-.038a.5067.5067 0 0 0-.087-.058c-.03-.015-.061-.024-.093-.033a.5073.5073 0 0 0-.103-.02.5002.5002 0 0 0-.095.005.5307.5307 0 0 0-.104.02c-.034.011-.063.027-.094.045-.02.011-.042.015-.061.029L4.23 23.486l-.901-.897 2.399-2.386 4.361 4.289-.928.919zm6.819-7.017c-.015-.002-.03.004-.045.003a.5556.5556 0 0 0-.115.007.5364.5364 0 0 0-.088.021.5413.5413 0 0 0-.097.047.4923.4923 0 0 0-.083.061c-.013.011-.028.017-.04.029l-4.698 5.146-4.328-4.257 2.833-2.818c.209-.208.21-.546.002-.755a.5314.5314 0 0 0-.381-.156v-.001l-2.219.013.028-1.607 3.104.027c1.265 1.294 3.029 2.101 4.981 2.101.437 0 .864-.045 1.279-.123.04.032.079.065.13.085l2.41.96.152.758.178.885-3.003-.427zm4.041.178-.313-1.558 1.446-1.08.947 1.257-2.08 1.381zm3.754-2.831-.838.785-.931-1.236.831-.637c.155-.119.351-.168.543-.143.193.027.364.128.48.284.217.292.18.699-.085.947z"/>
      <path fill="var(--color1, #2e2f42)" d="m13.602 18.544-2.143-2.133c-.207-.207-.545-.207-.753 0l-2.142 2.133c-.1.101-.157.236-.157.378s.056.278.157.378l2.142 2.133c.104.103.241.155.377.155s.273-.052.376-.155l2.143-2.133c.1-.1.157-.236.157-.378s-.057-.278-.157-.378zm-2.519 1.759-1.387-1.381 1.387-1.381 1.387 1.381-1.387 1.381zM17.164 5.071l-.258 1.036c.071.018 1.738.452 1.738 2.149h1.067c0-2.017-1.666-2.965-2.547-3.185zM19.711 9.322h-1.067v1.067h1.067V9.322z"/>
    </symbol>
    <symbol id="diagram" viewBox="0 0 32 32">
      <path fill="var(--color2, #4d5ae5)" d="M14.925 14.965h1.066v4.798h-1.066v-4.797zM19.19 17.097h1.066v2.665H19.19v-2.665zM10.661 18.696h1.066v1.066h-1.066v-1.066zM7.463 18.163h1.066v1.599H7.463v-1.599z"/>
      <path fill="var(--color1, #2e2f42)" d="M1.599 28.291h25.587c.883 0 1.599-.716 1.599-1.599V24.56c0-.883-.716-1.599-1.599-1.599h-.533V9.668L29.681 6.8c.703.346 1.553.136 2.013-.499s.396-1.508-.152-2.068-1.42-.644-2.065-.198a1.609 1.609 0 0 0-.542 2.002L26.654 8.2V6.97c0-.883-.716-1.599-1.599-1.599H3.733c-.883 0-1.599.716-1.599 1.599v15.992h-.533c-.883 0-1.599.716-1.599 1.599v2.132c0 .883.716 1.599 1.599 1.599zM30.384 4.837c.294 0 .533.239.533.533s-.239.533-.533.533c-.294 0-.533-.239-.533-.533s.239-.533.533-.533zM3.198 6.969c0-.294.239-.533.533-.533h21.322c.294 0 .533.239.533.533v2.239l-1.066 1.013V8.035c0-.294-.239-.533-.533-.533H4.797c-.294 0-.533.239-.533.533v13.326c0 .294.239.533.533.533h19.19c.294 0 .533-.239.533-.533v-9.674l1.066-1.01v12.284H3.198V6.969zm4.798 6.93c-.721-.002-1.354.478-1.546 1.174s.105 1.433.725 1.801c.62.368 1.41.276 1.928-.226l1.853.93a.532.532 0 0 0 .636-.123l3.939-4.431 3.872 2.901a.533.533 0 0 0 .686-.039l3.365-3.188v8.131H5.33V8.569h18.124v2.66l-3.771 3.572-3.904-2.927a.5332.5332 0 0 0-.718.072l-3.993 4.493-1.493-.746c.011-.064.018-.129.02-.193 0-.883-.716-1.599-1.599-1.599zm.533 1.599c0 .294-.239.533-.533.533s-.533-.239-.533-.533c0-.294.239-.533.533-.533s.533.239.533.533zm3.198 8.529h5.331v.533c0 .294-.239.533-.533.533h-4.264a.5335.5335 0 0 1-.533-.533v-.533zm-10.661.533c0-.294.239-.533.533-.533h9.062v.533c0 .883.716 1.599 1.599 1.599h4.264c.883 0 1.599-.716 1.599-1.599v-.533h9.062c.294 0 .533.239.533.533v2.132c0 .294-.239.533-.533.533H1.598a.5335.5335 0 0 1-.533-.533V24.56z"/>
    </symbol>
    <symbol id="clock" viewBox="0 0 32 32">
      <path fill="var(--color1, #2e2f42)" d="M31.297 15.301C31.295 6.849 24.442-.002 15.989 0S.686 6.855.688 15.308c.001 6.658 4.307 12.551 10.649 14.576.061.019.124.029.187.029.121 0 .239-.032.342-.094.135-.08.236-.207.283-.356l3.865-12.25c1.057-.005 1.909-.866 1.903-1.923s-.866-1.909-1.923-1.903c-.284.001-.565.067-.82.191l-5.106-5.107a.6372.6372 0 0 0-.902.016.637.637 0 0 0 0 .886l5.103 5.109c-.392.799-.168 1.764.536 2.309l-3.683 11.673C3.844 25.783.118 17.71 2.799 10.432S13.553-.572 20.831 2.109c7.278 2.681 11.004 10.754 8.323 18.032a14.0422 14.0422 0 0 1-7.462 7.973l-.398-1.874a.6373.6373 0 0 0-.756-.492.643.643 0 0 0-.293.148l-3.837 3.426a.6366.6366 0 0 0-.052.9c.076.085.174.149.283.184l4.899 1.564c.335.108.694-.077.802-.412.034-.106.04-.219.017-.328l-.391-1.839c5.664-2.388 9.342-7.942 9.329-14.089zm-15.305-.637c.352 0 .638.286.638.638s-.286.638-.638.638c-.352 0-.638-.285-.638-.638s.285-.638.638-.638zm2.101 14.864 2.184-1.948.603 2.84-2.787-.892z"/>
      <path fill="var(--color2, #4d5ae5)" d="M15.354 3.185V4.46c0 .352.285.638.638.638s.638-.285.638-.638V3.185c0-.352-.286-.638-.638-.638s-.638.286-.638.638zM3.876 14.664c-.352 0-.638.286-.638.638s.285.638.638.638h1.275c.352 0 .638-.285.638-.638s-.285-.638-.638-.638H3.876zM28.108 15.939c.352 0 .638-.285.638-.638s-.285-.638-.638-.638h-1.275c-.352 0-.638.286-.638.638s.286.638.638.638h1.275z"/>
    </symbol>
    <symbol id="close" viewBox="0 0 32 32">
      <path d="M32 3.223l-3.223-3.223-12.777 12.777-12.777-12.777-3.223 3.223 12.777 12.777-12.777 12.777 3.223 3.223 12.777-12.777 12.777 12.777 3.223-3.223-12.777-12.777 12.777-12.777z"></path>
    </symbol>
    <symbol id="checkmark" viewBox="0 0 32 32">
      <path  d="M27.026 4.016c0.553-0.529 1.289-0.822 2.052-0.816s1.495 0.31 2.040 0.847c0.545 0.538 0.861 1.267 0.881 2.034s-0.257 1.513-0.773 2.078l-15.663 19.694c-0.269 0.292-0.594 0.526-0.956 0.688s-0.752 0.25-1.147 0.257c-0.396 0.007-0.789-0.066-1.156-0.214s-0.701-0.371-0.98-0.652l-10.387-10.443c-0.289-0.271-0.521-0.598-0.682-0.961s-0.247-0.755-0.254-1.152 0.066-0.792 0.214-1.161c0.148-0.369 0.368-0.703 0.648-0.984s0.613-0.503 0.979-0.652 0.759-0.222 1.155-0.215c0.395 0.007 0.785 0.094 1.146 0.256s0.686 0.395 0.956 0.686l8.22 8.26 13.633-17.464c0.025-0.030 0.051-0.059 0.078-0.087h-0.004z"></path>
    </symbol>
    <symbol id="message" viewBox="0 0 32 32">
      <path d="M32 2.667l-32 15 10.227 3.156 15.773-12.323-11.998 13.488 0.010 0.003-0.012-0.003v7.345l5.735-5.576 7.265 2.242 5-23.333z"></path>
    </symbol>
    <symbol id="email" viewBox="0 0 24 32">
      <path d="M20 8h-16c-1.1 0-1.99 0.9-1.99 2l-0.010 12c0 1.1 0.9 2 2 2h16c1.1 0 2-0.9 2-2v-12c0-1.1-0.9-2-2-2zM19.6 12.25l-7.070 4.42c-0.32 0.2-0.74 0.2-1.060 0l-7.070-4.42c-0.25-0.16-0.4-0.43-0.4-0.72 0-0.67 0.73-1.070 1.3-0.72l6.7 4.19 6.7-4.19c0.57-0.35 1.3 0.050 1.3 0.72 0 0.29-0.15 0.56-0.4 0.72z"></path>
    </symbol>
    <symbol id="phone" viewBox="0 0 24 32">
      <path d="M19.635 18.487l-2.451-0.28c-0.589-0.067-1.167 0.135-1.582 0.55l-1.775 1.775c-2.731-1.389-4.969-3.618-6.359-6.359l1.785-1.785c0.415-0.415 0.618-0.994 0.55-1.582l-0.28-2.432c-0.116-0.975-0.936-1.708-1.92-1.708h-1.669c-1.090 0-1.997 0.907-1.93 1.997 0.511 8.24 7.102 14.821 15.332 15.332 1.090 0.068 1.997-0.839 1.997-1.93v-1.669c0.010-0.975-0.724-1.795-1.698-1.911z"></path>
    </symbol>
    <symbol id="person" viewBox="0 0 32 32">
      <path d="M16 16c2.947 0 5.333-2.387 5.333-5.333s-2.387-5.333-5.333-5.333c-2.947 0-5.333 2.387-5.333 5.333s2.387 5.333 5.333 5.333zM16 18.667c-3.56 0-10.667 1.787-10.667 5.333v1.333c0 0.733 0.6 1.333 1.333 1.333h18.667c0.733 0 1.333-0.6 1.333-1.333v-1.333c0-3.547-7.107-5.333-10.667-5.333z"></path>
    </symbol>
    <symbol id="menu" viewBox="0 0 32 22" fill="none">
      <g clip-path="url(#clip0_297053_2156)">
      <path d="M1.34766 20.0431H30.8861M1.34766 10.7354H30.8861M1.34766 1.42773H30.8861" stroke="#2E2F42" stroke-width="3" stroke-linecap="round" stroke-linejoin="round"/>
      </g>
      <defs>
        <clipPath id="clip0_297053_2156">
          <rect width="32" height="22" fill="white"/>
        </clipPath>
      </defs>
    </symbol>
  </defs>
</svg>